<?xml version="1.0" encoding="UTF-8" standalone="no"?>
<svg
   id="icon-wagtail-icon"
   viewBox="0 0 16 16"
   version="1.1"
   xmlns="http://www.w3.org/2000/svg"
   xmlns:svg="http://www.w3.org/2000/svg">
  <defs
     id="defs7" />
  <path
     class="wagtail-logo-face"
     fill="#ffffff"
     d="m 11.816869,0.884375 0.0015,0.6721441 c 0,0 -1.197367,-0.4470161 -1.9689137,0.368156 -0.5611752,0.592864 -0.6071936,1.2443763 -0.3499367,2.1221864 2.5419934,0 2.9337684,1.4220384 2.9337684,1.4220384 l -0.26182,-1.6360066 0.798139,-0.9724348 c -3e-5,-1.1516868 -0.952927,-1.91319792 -1.152497,-1.9760835"
     id="path2-9"
     style="stroke-width:0.0281126" />
  <path
     d="M12.324 2.539c0 0.152-0.114 0.303-0.303 0.303-0.152 0-0.303-0.152-0.303-0.303 0-0.19 0.152-0.303 0.303-0.303 0.19 0 0.303 0.114 0.303 0.303zM12.437 5.421c0 0-0.417-1.896-2.92-1.403-0.228-0.872-0.19-1.517 0.341-2.086 0.759-0.796 1.972-0.379 1.972-0.379v-0.645c-0.417-0.19-0.834-0.228-1.252-0.228-1.631 0-2.541 1.214-2.92 2.048l-4.513 8.306 1.289-0.228-2.351 4.513 1.631-0.303 1.252-3.527c3.527 0 8.078-1.289 7.471-6.068zM13.954 3.828l-0.986-0.986-0.796 0.986zM5.535 10.465c0 0 0.152-0.038 0.341-0.076 0.19-0.076 0.493-0.114 0.834-0.228 0.19-0.038 0.379-0.114 0.569-0.152 0.19-0.076 0.417-0.152 0.607-0.228 0.228-0.114 0.417-0.19 0.607-0.303 0.228-0.114 0.417-0.265 0.607-0.379 0.038-0.038 0.114-0.076 0.152-0.114l0.114-0.114c0.114-0.114 0.19-0.19 0.265-0.265s0.152-0.19 0.228-0.265c0.038-0.038 0.076-0.076 0.114-0.152l0.038-0.076 0.038-0.038c0.038-0.076 0.076-0.114 0.076-0.152 0.038-0.038 0.076-0.114 0.076-0.152 0.038-0.038 0.038-0.038 0.038-0.076 0.038 0 0.038-0.038 0.038-0.076 0.038-0.038 0.038-0.076 0.076-0.114 0.038-0.114 0.076-0.19 0.114-0.303 0-0.076 0.038-0.152 0.076-0.265 0-0.076 0.038-0.152 0.038-0.228s0.038-0.152 0.038-0.228c0-0.076 0.038-0.152 0.038-0.228 0-0.038 0-0.114 0-0.152 0-0.19 0.038-0.341 0.038-0.341l0.19 0.038c0 0-0.038 0.114-0.038 0.303 0 0.076-0.038 0.114-0.038 0.19s0 0.152-0.038 0.19c0 0.076 0 0.152-0.038 0.265 0 0.076-0.038 0.152-0.038 0.228-0.038 0.114-0.076 0.19-0.114 0.303-0.038 0.076-0.076 0.19-0.114 0.265 0 0.038-0.038 0.114-0.076 0.152 0 0.038 0 0.038-0.038 0.076 0 0.038 0 0.038-0.038 0.076 0 0.038-0.038 0.076-0.076 0.152-0.038 0.038-0.038 0.076-0.076 0.114s-0.038 0.076-0.038 0.076l-0.076 0.076c-0.038 0.038-0.076 0.114-0.114 0.152-0.076 0.076-0.152 0.19-0.228 0.265s-0.152 0.152-0.265 0.265l-0.114 0.114c-0.076 0.038-0.114 0.038-0.152 0.076-0.228 0.152-0.417 0.303-0.645 0.417-0.19 0.076-0.417 0.19-0.607 0.265-0.228 0.076-0.417 0.152-0.645 0.228-0.19 0.038-0.379 0.114-0.569 0.152-0.341 0.076-0.645 0.152-0.834 0.19s-0.341 0.076-0.341 0.076z"
     id="path2" />
  <path
     style="fill:none;stroke:#000000;stroke-width:0.5;stroke-linecap:butt;stroke-linejoin:miter;stroke-miterlimit:4;stroke-dasharray:none;stroke-opacity:1"
     d="m 5.5621302,13.514793 0.4456834,-0.385662 0.8530346,1.610908 1.7608936,-3.43741 h 5.0350632 v 0.626365"
     id="path1343" />
  <text
     xml:space="preserve"
     style="font-style:normal;font-weight:normal;font-size:4.66667px;line-height:1.25;font-family:sans-serif;fill:#000000;fill-opacity:1;stroke:none"
     x="7.5739646"
     y="15.235253"
     id="text4879"><tspan
       id="tspan4877"
       x="7.5739646"
       y="15.235253"
       style="font-style:italic;font-variant:normal;font-weight:normal;font-stretch:normal;font-size:4.66667px;font-family:'Times New Roman';-inkscape-font-specification:'Times New Roman,  Italic'">e</tspan></text>
  <text
     xml:space="preserve"
     style="font-style:normal;font-weight:normal;font-size:40px;line-height:1.25;font-family:sans-serif;fill:#000000;fill-opacity:1;stroke:none"
     x="10.272189"
     y="12.213018"
     id="text19187"><tspan
       id="tspan19185" /></text>
  <text
     xml:space="preserve"
     style="font-size:3.33333px;line-height:1.25;font-family:sans-serif"
     x="9.822485"
     y="13.704142"
     id="text33465"><tspan
       id="tspan33463"
       x="9.822485"
       y="13.704142"
       style="font-style:italic;font-variant:normal;font-weight:normal;font-stretch:normal;font-size:3.33333px;font-family:'Times New Roman';-inkscape-font-specification:'Times New Roman,  Italic'">iπ</tspan></text>
  <text
     xml:space="preserve"
     style="font-size:4.66667px;line-height:1.25;font-family:sans-serif"
     x="12.307693"
     y="15.289941"
     id="text45987"><tspan
       id="tspan45985"
       x="12.307693"
       y="15.289941"
       style="font-style:normal;font-variant:normal;font-weight:normal;font-stretch:normal;font-size:4.66667px;font-family:Arial;-inkscape-font-specification:Arial">!</tspan></text>
  <path
     data-part="feather-accent"
     fill="#ffffff"
     d="m 5.4500045,10.451109 c 0,0 0.1195972,-0.02472 0.3288477,-0.06802 0.2089771,-0.04443 0.5075585,-0.108498 0.8616566,-0.201025 C 6.8174013,10.135344 7.0082831,10.08191 7.2075147,10.017389 7.4073492,9.9547195 7.6148271,9.8788825 7.8261121,9.7931795 8.0378672,9.70843 8.2502838,9.6060306 8.460559,9.4930987 8.6713383,9.3807373 8.8751444,9.2484785 9.0690374,9.1043942 c 0.04763,-0.037236 0.09756,-0.071446 0.143151,-0.1109531 l 0.137944,-0.116637 c 0.08744,-0.082284 0.177184,-0.1617089 0.256165,-0.250215 0.08347,-0.084358 0.156256,-0.1767447 0.230495,-0.2658323 0.03549,-0.045836 0.06831,-0.09328 0.102222,-0.1392977 l 0.05013,-0.069162 0.04522,-0.07176 c 0.02982,-0.047693 0.05948,-0.094947 0.08879,-0.1417913 0.02631,-0.048553 0.05237,-0.096709 0.07818,-0.144323 0.01285,-0.023792 0.0257,-0.047436 0.03838,-0.071007 0.01112,-0.024336 0.02226,-0.048521 0.0333,-0.072559 0.02208,-0.048073 0.04382,-0.095536 0.0653,-0.142348 0.03864,-0.095523 0.07395,-0.1894578 0.107198,-0.2804524 0.02803,-0.092937 0.05753,-0.1819016 0.0815,-0.2685817 0.021,-0.087498 0.04114,-0.1713536 0.06034,-0.2511079 0.0144,-0.080853 0.02803,-0.1575219 0.04085,-0.2295566 0.01454,-0.071702 0.01997,-0.1402497 0.02781,-0.203118 0.0073,-0.062925 0.014,-0.1207134 0.02009,-0.172942 0.01266,-0.210084 0.01982,-0.3301407 0.01982,-0.3301407 l 0.1874,0.00868 c 0,0 -0.01038,0.1235336 -0.02862,0.3397103 -0.0073,0.053777 -0.01587,0.1133066 -0.02502,0.1781266 -0.0096,0.064701 -0.01698,0.1350828 -0.03373,0.2090195 -0.01503,0.074171 -0.03106,0.1530434 -0.04794,0.2361963 -0.02177,0.082096 -0.04473,0.1683907 -0.06866,0.2584237 -0.02701,0.089175 -0.05969,0.1807769 -0.09105,0.2761483 -0.03666,0.093554 -0.07561,0.1900031 -0.118092,0.2879077 -0.02343,0.047984 -0.0472,0.096679 -0.07117,0.1459401 -0.01203,0.024552 -0.02413,0.049328 -0.03625,0.074255 -0.01375,0.024083 -0.02757,0.048317 -0.04148,0.072699 -0.02789,0.048613 -0.05606,0.097765 -0.08452,0.1473779 -0.03146,0.04775 -0.06331,0.095942 -0.09536,0.1445363 -0.01608,0.024209 -0.0323,0.048492 -0.04852,0.072927 l -0.05345,0.070326 c -0.03622,0.04673 -0.07129,0.094795 -0.1090476,0.141194 -0.07875,0.09016 -0.156073,0.1833792 -0.243932,0.2681337 -0.08347,0.088964 -0.177451,0.1683739 -0.269078,0.2504496 L 9.2733944,9.070643 c -0.04758,0.039261 -0.0994,0.073078 -0.148892,0.1098293 C 8.9231152,9.3227914 8.7126716,9.4520871 8.4964246,9.5608551 8.2806211,9.6702124 8.0635824,9.7684273 7.8481306,9.8487247 7.6330959,9.9300385 7.4226585,10.001193 7.2204547,10.059381 c -0.201629,0.05995 -0.3943258,0.10899 -0.5726904,0.151519 -0.3569899,0.08422 -0.6571325,0.14111 -0.8671829,0.180499 -0.2102617,0.0381 -0.330422,0.05996 -0.330422,0.05996"
     id="path12"
     style="stroke-width:0.0281126" />
</svg>
